HIERARCHY
ROOT hip
{
  OFFSET 0 0 0
  CHANNELS 6 Xposition Yposition Zposition Zrotation Yrotation Xrotation
  JOINT abdomen
  {
    OFFSET 0 20.6881 -0.73152
    CHANNELS 3 Zrotation Xrotation Yrotation
    JOINT chest
    {
      OFFSET 0 11.7043 -0.48768
      CHANNELS 3 Zrotation Xrotation Yrotation
      JOINT neck
      {
        OFFSET 0 22.1894 -2.19456
        CHANNELS 3 Zrotation Xrotation Yrotation
        JOINT head
        {
          OFFSET -0.24384 7.07133 1.2192
          CHANNELS 3 Zrotation Xrotation Yrotation
          JOINT leftEye
          {
            OFFSET 4.14528 8.04674 8.04672
            CHANNELS 3 Zrotation Xrotation Yrotation
            End Site
            {
              OFFSET 1 0 0
            }
          }
          JOINT rightEye
          {
            OFFSET -3.6576 8.04674 8.04672
            CHANNELS 3 Zrotation Xrotation Yrotation
            End Site
            {
              OFFSET 1 0 0
            }
          }
        }
      }
      JOINT rCollar
      {
        OFFSET -2.68224 19.2634 -4.8768
        CHANNELS 3 Zrotation Xrotation Yrotation
        JOINT rShldr
        {
          OFFSET -8.77824 -1.95073 1.46304
          CHANNELS 3 Zrotation Xrotation Yrotation
          JOINT rForeArm
          {
            OFFSET -28.1742 -1.7115 0.48768
            CHANNELS 3 Zrotation Xrotation Yrotation
            JOINT rHand
            {
              OFFSET -22.5879 0.773209 7.07136
              CHANNELS 3 Zrotation Xrotation Yrotation
              JOINT rThumb1
              {
                OFFSET -1.2192 -0.487915 3.41376
                CHANNELS 3 Zrotation Xrotation Yrotation
                JOINT rThumb2
                {
                  OFFSET -3.37035 -0.52449 3.41376
                  CHANNELS 3 Zrotation Xrotation Yrotation
                  End Site
                  {
                    OFFSET -1.78271 -1.18214 1.43049
                  }
                }
              }
              JOINT rIndex1
              {
                OFFSET -7.75947 0.938293 5.60832
                CHANNELS 3 Zrotation Xrotation Yrotation
                JOINT rIndex2
                {
                  OFFSET -2.54057 -0.884171 1.56538
                  CHANNELS 3 Zrotation Xrotation Yrotation
                  End Site
                  {
                    OFFSET -1.62519 -0.234802 1.16502
                  }
                }
              }
              JOINT rMid1
              {
                OFFSET -8.24714 1.18213 3.41376
                CHANNELS 3 Zrotation Xrotation Yrotation
                JOINT rMid2
                {
                  OFFSET -3.10165 -0.590103 1.0647
                  CHANNELS 3 Zrotation Xrotation Yrotation
                  End Site
                  {
                    OFFSET -2.48547 -0.328903 0.83742
                  }
                }
              }
              JOINT rRing1
              {
                OFFSET -8.82822 0.546677 1.51678
                CHANNELS 3 Zrotation Xrotation Yrotation
                JOINT rRing2
                {
                  OFFSET -2.60934 -0.819778 -0.0198488
                  CHANNELS 3 Zrotation Xrotation Yrotation
                  End Site
                  {
                    OFFSET -2.33842 -0.294052 0.168128
                  }
                }
              }
              JOINT rPinky1
              {
                OFFSET -8.27202 -0.0477905 -0.4584
                CHANNELS 3 Zrotation Xrotation Yrotation
                JOINT rPinky2
                {
                  OFFSET -1.82734 -0.647385 -0.700984
                  CHANNELS 3 Zrotation Xrotation Yrotation
                  End Site
                  {
                    OFFSET -1.69225 -0.51767 -0.607171
                  }
                }
              }
            }
          }
        }
      }
      JOINT lCollar
      {
        OFFSET 2.68224 19.2634 -4.8768
        CHANNELS 3 Zrotation Xrotation Yrotation
        JOINT lShldr
        {
          OFFSET 8.77824 -1.95073 1.46304
          CHANNELS 3 Zrotation Xrotation Yrotation
          JOINT lForeArm
          {
            OFFSET 28.1742 -1.7115 0.48768
            CHANNELS 3 Zrotation Xrotation Yrotation
            JOINT lHand
            {
              OFFSET 22.5879 0.773209 7.07136
              CHANNELS 3 Zrotation Xrotation Yrotation
              JOINT lThumb1
              {
                OFFSET 1.2192 -0.487915 3.41376
                CHANNELS 3 Zrotation Xrotation Yrotation
                JOINT lThumb2
                {
                  OFFSET 3.37035 -0.52449 3.41376
                  CHANNELS 3 Zrotation Xrotation Yrotation
                  End Site
                  {
                    OFFSET 1.78271 -1.18214 1.43049
                  }
                }
              }
              JOINT lIndex1
              {
                OFFSET 7.75947 0.938293 5.60832
                CHANNELS 3 Zrotation Xrotation Yrotation
                JOINT lIndex2
                {
                  OFFSET 2.54057 -0.884171 1.56538
                  CHANNELS 3 Zrotation Xrotation Yrotation
                  End Site
                  {
                    OFFSET 1.62519 -0.234802 1.16502
                  }
                }
              }
              JOINT lMid1
              {
                OFFSET 8.24714 1.18213 3.41376
                CHANNELS 3 Zrotation Xrotation Yrotation
                JOINT lMid2
                {
                  OFFSET 3.10165 -0.590103 1.0647
                  CHANNELS 3 Zrotation Xrotation Yrotation
                  End Site
                  {
                    OFFSET 2.48547 -0.328903 0.83742
                  }
                }
              }
              JOINT lRing1
              {
                OFFSET 8.82822 0.546677 1.51678
                CHANNELS 3 Zrotation Xrotation Yrotation
                JOINT lRing2
                {
                  OFFSET 2.60934 -0.819778 -0.0198488
                  CHANNELS 3 Zrotation Xrotation Yrotation
                  End Site
                  {
                    OFFSET 2.33842 -0.294052 0.168128
                  }
                }
              }
              JOINT lPinky1
              {
                OFFSET 8.27202 -0.0477905 -0.4584
                CHANNELS 3 Zrotation Xrotation Yrotation
                JOINT lPinky2
                {
                  OFFSET 1.82734 -0.647385 -0.700984
                  CHANNELS 3 Zrotation Xrotation Yrotation
                  End Site
                  {
                    OFFSET 1.69225 -0.51767 -0.607171
                  }
                }
              }
            }
          }
        }
      }
    }
  }
  JOINT rButtock
  {
    OFFSET -8.77824 4.35084 1.2192
    CHANNELS 3 Zrotation Xrotation Yrotation
    JOINT rThigh
    {
      OFFSET 0 -1.70687 -2.19456
      CHANNELS 3 Zrotation Xrotation Yrotation
      JOINT rShin
      {
        OFFSET 0 -36.8199 0.73152
        CHANNELS 3 Zrotation Xrotation Yrotation
        JOINT rFoot
        {
          OFFSET 0.73152 -45.1104 -5.12064
          CHANNELS 3 Zrotation Xrotation Yrotation
          End Site
          {
            OFFSET -1.1221 -3.69964 12.103
          }
        }
      }
    }
  }
  JOINT lButtock
  {
    OFFSET 8.77824 4.35084 1.2192
    CHANNELS 3 Zrotation Xrotation Yrotation
    JOINT lThigh
    {
      OFFSET 0 -1.70687 -2.19456
      CHANNELS 3 Zrotation Xrotation Yrotation
      JOINT lShin
      {
        OFFSET 0 -36.8199 0.73152
        CHANNELS 3 Zrotation Xrotation Yrotation
        JOINT lFoot
        {
          OFFSET -0.73152 -45.1104 -5.12064
          CHANNELS 3 Zrotation Xrotation Yrotation
          End Site
          {
            OFFSET 1.1221 -3.69964 12.103
          }
        }
      }
    }
  }
}
MOTION
Frames:	5
Frame Time:	0.00833333
129.737 85.3326 19.6023 0.0 0.0 0.0 1.16874 -0.00493879 0.0322835 0.322752 -0.004724 0.0559148 1.55602e-14 -1.59028e-15 1.73937e-16 4.66678e-14 3.18055e-15 5.57529e-16 -0.0 0.0 0.0 -0.0 0.0 0.0 7.80122e-15 -1.55301e-18 2.48481e-16 1.6541e-13 -6.21202e-17 3.37934e-15 2.81241e-12 -8.39468e-13 -6.36111e-15 3.21087e-11 8.3502e-13 4.0075e-13 7.57553e-11 -1.28883e-14 8.55569e-13 1.30815e-10 -2.54444e-14 1.48214e-12 7.57576e-11 -1.19271e-14 8.42847e-13 7.73091 5.47488 0.417314 7.57542e-11 -1.35174e-14 8.6193e-13 2.90554 0.965183 0.102902 7.57627e-11 -1.30204e-14 8.6034e-13 10.2786 0.731801 0.0259123 7.57433e-11 -9.93923e-15 8.77833e-13 2.22167 -0.733487 -0.20892 7.80388e-15 -5.82377e-19 -4.96962e-17 1.61482e-13 -4.41053e-16 1.78906e-15 2.79943e-12 8.37877e-13 2.8625e-14 3.21204e-11 -8.63173e-13 3.81667e-13 7.57557e-11 -5.28653e-14 8.68291e-13 1.3084e-10 -9.22361e-14 1.48691e-12 7.57525e-11 -5.32743e-14 8.65111e-13 -7.73091 5.47488 -0.417314 7.57549e-11 -5.32743e-14 8.6193e-13 -2.90554 0.965183 -0.102902 7.57562e-11 -5.33737e-14 8.6193e-13 -10.2786 0.731801 -0.0259123 7.57658e-11 -5.08889e-14 8.46028e-13 -2.22167 -0.733487 0.20892 -2.03217e-16 0.0 -3.88251e-19 1.35592 -5.8465 -0.122722 0.0011314 5.03398 0.0413987 -0.480931 0.811098 0.0710976 2.03217e-16 0.0 3.88251e-19 0.426491 -1.91991 0.0099711 0.00898907 -2.0786 0.0740798 0.459214 3.99698 -0.132477
125.768 83.3839 13.8696 164.396 -85.7162 -156.597 -0.153605 -2.66019 1.03099 1.82398 -2.35392 0.444036 -3.90189 4.13962 -1.63692 6.47076 -6.01181 -2.08183 -0.0 0.0 0.0 -0.0 0.0 0.0 2.157e-14 1.15407e-12 -2.73841e-14 24.0464 -2.34644 -2.12527 -4.4492 -2.06923 6.89695 0.012073 2.45064 0.343296 -1.00712e-10 1.03074e-09 -1.61504e-09 -1.86554e-10 1.78413e-09 -2.79161e-09 -1.00709e-10 1.03074e-09 -1.61505e-09 7.73091 5.47488 0.417314 -1.00714e-10 1.03073e-09 -1.61504e-09 2.90554 0.965183 0.102902 -1.00705e-10 1.03074e-09 -1.61504e-09 10.2786 0.731801 0.0259123 -1.00722e-10 1.03074e-09 -1.61502e-09 2.22167 -0.733487 -0.20892 2.15436e-14 1.15407e-12 -2.76722e-14 -25.8293 1.2241 3.53513 5.9059 -3.1341 -8.68263 -0.0304894 3.87515 -0.540127 3.06876e-10 -6.27222e-11 9.20757e-10 5.39762e-10 -1.10154e-10 1.58996e-09 3.06871e-10 -6.27202e-11 9.20763e-10 -7.73091 5.47488 -0.417314 3.06875e-10 -6.2723e-11 9.20751e-10 -2.90554 0.965183 -0.102902 3.06875e-10 -6.27227e-11 9.20751e-10 -10.2786 0.731801 -0.0259123 3.06885e-10 -6.27198e-11 9.20738e-10 -2.22167 -0.733487 0.20892 -2.03217e-16 0.0 -3.88251e-19 0.930952 -10.1389 -0.630762 0.0174278 11.7316 0.162707 -0.904463 -4.75783 -3.1932 2.03217e-16 0.0 3.88251e-19 0.124656 -7.18384 -0.376543 -0.00632278 7.1271 -0.074162 0.386116 -3.20492 -0.343861
125.782 83.3803 13.8644 164.769 -85.7243 -156.906 -1.45395 -5.46491 2.09457 3.44762 -4.83971 0.857105 -7.78315 8.52252 -3.41772 12.8498 -12.3503 -4.40151 -0.0 0.0 0.0 -0.0 0.0 0.0 3.68635e-14 2.42601e-12 -5.78836e-14 49.2732 -4.77514 -4.39013 -8.62447 -4.16352 14.2312 -0.00737554 5.07008 0.712397 -2.98448e-10 2.18432e-09 -3.42728e-09 -5.42141e-10 3.7809e-09 -5.92406e-09 -2.98444e-10 2.18432e-09 -3.42729e-09 7.73091 5.47488 0.417314 -2.9845e-10 2.18432e-09 -3.42728e-09 2.90554 0.965183 0.102902 -2.98442e-10 2.18432e-09 -3.42728e-09 10.2786 0.731801 0.0259123 -2.98456e-10 2.18432e-09 -3.42726e-09 2.22167 -0.733487 -0.20892 3.68073e-14 2.42601e-12 -5.81632e-14 -53.2981 2.48783 7.26776 11.122 -6.20178 -17.9347 0.0174033 7.96509 -1.11862 5.68044e-10 -1.30168e-10 1.9538e-09 1.0018e-09 -2.28693e-10 3.37382e-09 5.68036e-10 -1.30163e-10 1.95381e-09 -7.73091 5.47488 -0.417314 5.68044e-10 -1.30169e-10 1.95379e-09 -2.90554 0.965183 -0.102902 5.68041e-10 -1.30168e-10 1.95379e-09 -10.2786 0.731801 -0.0259123 5.68052e-10 -1.30165e-10 1.95378e-09 -2.22167 -0.733487 0.20892 -2.03217e-16 0.0 -3.88251e-19 0.394692 -14.6722 -1.1894 0.00202371 18.8125 0.299992 -2.05059 -10.5858 -6.73477 2.03217e-16 0.0 3.88251e-19 -0.274631 -12.7445 -0.799355 0.0310246 16.8572 -0.239924 0.249505 -10.8169 -0.578632
125.786 83.3786 13.8522 165.488 -85.7552 -157.609 -2.51843 -7.96079 3.05454 4.92256 -7.05093 1.22845 -10.9827 12.3778 -5.01481 18.0477 -17.9377 -6.52982 -0.0 0.0 0.0 -0.0 0.0 0.0 4.91075e-14 3.46222e-12 -8.26494e-14 71.6149 -7.00043 -6.41851 -11.8827 -5.84866 20.7905 -0.0524975 7.35085 1.03747 -4.53648e-10 3.09223e-09 -4.84683e-09 -8.21291e-10 5.35243e-09 -8.37779e-09 -4.53642e-10 3.09223e-09 -4.84684e-09 7.73091 5.47488 0.417314 -4.5365e-10 3.09223e-09 -4.84683e-09 2.90554 0.965183 0.102902 -4.53641e-10 3.09223e-09 -4.84683e-09 10.2786 0.731801 0.0259123 -4.53653e-10 3.09223e-09 -4.84681e-09 2.22167 -0.733487 -0.20892 4.90231e-14 3.46222e-12 -8.29173e-14 -77.9388 3.6164 10.6244 14.9509 -8.54026 -26.3225 0.131591 11.6213 -1.65052 7.69116e-10 -1.88061e-10 2.76053e-09 1.3576e-09 -3.30279e-10 4.7669e-09 7.69107e-10 -1.88054e-10 2.76056e-09 -7.73091 5.47488 -0.417314 7.69116e-10 -1.88062e-10 2.76053e-09 -2.90554 0.965183 -0.102902 7.69112e-10 -1.88061e-10 2.76053e-09 -10.2786 0.731801 -0.0259123 7.69123e-10 -1.88058e-10 2.76052e-09 -2.22167 -0.733487 0.20892 -2.03217e-16 0.0 -3.88251e-19 -0.159431 -18.7178 -1.70898 -0.0434611 25.1263 0.436776 -3.70605 -15.6848 -10.0673 2.03217e-16 0.0 3.88251e-19 -0.701358 -17.7085 -1.19744 0.117048 25.5379 -0.408766 0.0730576 -17.6073 -0.803293
125.786 83.3784 13.8343 166.535 -85.7803 -158.662 -3.19188 -9.69395 3.7306 5.95734 -8.57702 1.4877 -13.0136 14.9561 -6.04842 21.323 -21.7492 -7.89451 -0.0 0.0 0.0 -0.0 0.0 0.0 5.37279e-14 3.9091e-12 -9.30809e-14 87.1026 -8.75322 -7.81829 -13.8814 -6.85909 25.3157 -0.0956235 8.78606 1.24467 -5.02505e-10 3.38596e-09 -5.28465e-09 -9.09346e-10 5.86085e-09 -9.13471e-09 -5.02499e-10 3.38596e-09 -5.28465e-09 7.73091 5.47488 0.417314 -5.02508e-10 3.38596e-09 -5.28465e-09 2.90554 0.965183 0.102902 -5.02499e-10 3.38596e-09 -5.28464e-09 10.2786 0.731801 0.0259123 -5.02509e-10 3.38596e-09 -5.28463e-09 2.22167 -0.733487 -0.20892 5.36194e-14 3.9091e-12 -9.33294e-14 -95.2024 4.45802 13.0241 17.2185 -9.8705 -32.2897 0.253763 14.197 -2.03755 8.19949e-10 -2.22073e-10 3.0015e-09 1.44783e-09 -3.89481e-10 5.18304e-09 8.19938e-10 -2.22065e-10 3.00153e-09 -7.73091 5.47488 -0.417314 8.19949e-10 -2.22074e-10 3.0015e-09 -2.90554 0.965183 -0.102902 8.19943e-10 -2.22073e-10 3.0015e-09 -10.2786 0.731801 -0.0259123 8.19955e-10 -2.22069e-10 3.0015e-09 -2.22167 -0.733487 0.20892 -2.03217e-16 0.0 -3.88251e-19 -0.583206 -21.5499 -2.07743 -0.0957071 29.5225 0.544704 -5.24002 -19.1639 -12.5424 2.03217e-16 0.0 3.88251e-19 -1.03629 -21.1838 -1.48981 0.212852 31.5956 -0.547116 -0.0803552 -22.3451 -0.966226
